<svg width="20" height="20" viewBox="0 0 20 20" fill="none" xmlns="http://www.w3.org/2000/svg">
<path d="M15.8334 3.33337H4.16675C3.50371 3.33337 2.86782 3.59677 2.39898 4.06561C1.93014 4.53445 1.66675 5.17033 1.66675 5.83337V14.1667C1.66675 14.8297 1.93014 15.4656 2.39898 15.9345C2.86782 16.4033 3.50371 16.6667 4.16675 16.6667H15.8334C16.4965 16.6667 17.1323 16.4033 17.6012 15.9345C18.07 15.4656 18.3334 14.8297 18.3334 14.1667V5.83337C18.3334 5.17033 18.07 4.53445 17.6012 4.06561C17.1323 3.59677 16.4965 3.33337 15.8334 3.33337ZM15.8334 5.00004L10.4167 8.72504C10.2901 8.79818 10.1464 8.83669 10.0001 8.83669C9.8538 8.83669 9.7101 8.79818 9.58341 8.72504L4.16675 5.00004H15.8334Z" fill="white"/>
</svg>
